<?xml version="1.0" encoding="utf-8"?>
<!-- Generator: Adobe Illustrator 26.2.1, SVG Export Plug-In . SVG Version: 6.00 Build 0)  -->
<svg version="1.1" xmlns="http://www.w3.org/2000/svg" xmlns:xlink="http://www.w3.org/1999/xlink" x="0px" y="0px"
	 viewBox="0 0 50 50" style="enable-background:new 0 0 50 50;" xml:space="preserve">
<style type="text/css">
	.st0{fill:#FFFFFF;}
</style>
<g id="Buttons">
	<g>
		<path class="st0" d="M25,3c12.1,0,22,9.9,22,22c0,12.1-9.9,22-22,22C12.9,47,3,37.2,3,25C3,12.9,12.9,3,25,3 M25,0
			C11.2,0,0,11.2,0,25s11.2,25,25,25c13.8,0,25-11.2,25-25S38.8,0,25,0L25,0z"/>
	</g>
</g>
<g id="Symbols">
	<g id="孔述茁蚓鏑_81_19_">
		<path class="st0" d="M37.5,19.2l-16,16l0,0l0,0l-8.9-8.9l4.4-4.4l4.5,4.5l11.6-11.6L37.5,19.2z"/>
	</g>
</g>
</svg>
