<?xml version="1.0" encoding="utf-8"?>
<!-- Generator: Adobe Illustrator 26.2.1, SVG Export Plug-In . SVG Version: 6.00 Build 0)  -->
<svg version="1.1" id="Layer_1" xmlns="http://www.w3.org/2000/svg" xmlns:xlink="http://www.w3.org/1999/xlink" x="0px" y="0px"
	 viewBox="0 0 580.5 70" style="enable-background:new 0 0 580.5 70;" xml:space="preserve">
<style type="text/css">
	.st0{fill:none;stroke:#FFFFFF;stroke-miterlimit:10;}
	.st1{fill:#FFFFFF;}
	.st2{fill:#FFFFFF;stroke:#FFFFFF;stroke-width:0.75;stroke-miterlimit:10;}
</style>
<path class="st0" d="M564.6,31.3H523c-8.5,0-15.4-6.9-15.4-15.4l0,0c0-8.5,6.9-15.4,15.4-15.4h41.6c8.5,0,15.4,6.9,15.4,15.4l0,0
	C580,24.4,573.1,31.3,564.6,31.3z"/>
<g>
	<g>
		<path class="st1" d="M524.7,7.6h5.3c2.8,0,4.4,1.4,4.4,3.6c0,2.2-1.5,3.6-3.5,4c1.4,0.5,2.5,1.5,2.5,3.2c0,2.7-2.2,4.6-5.9,4.6
			h-6.5L524.7,7.6z M527.5,21.4c2.5,0,4.1-1.2,4.1-3.1c0-1.6-1.3-2.4-3.2-2.4h-4.3l-1.3,5.4H527.5z M528.5,14.5
			c2.5,0,4.1-1.2,4.1-3.1c0-1.5-1-2.2-2.9-2.2h-3.9l-1.3,5.3H528.5z"/>
		<path class="st1" d="M537.2,17.9c0,0.2,0,0.3,0,0.5c0,2.1,1.2,3.4,3.1,3.4c1.3,0,2.3-0.5,3.2-1.3l0.8,1.1c-1,0.9-2.3,1.7-4.1,1.7
			c-2.8,0-4.6-2-4.6-4.8c0-1.9,0.7-3.8,2-5.1c1.1-1.2,2.5-1.9,4.1-1.9c2.6,0,4,2,4,4.4c0,0.8-0.1,1.5-0.4,2.2H537.2z M537.4,16.6
			h6.7c0.1-0.2,0.1-0.5,0.1-0.9c0-1.6-0.8-2.9-2.6-2.9c-1.1,0-2.1,0.6-2.9,1.4C538.1,14.8,537.7,15.7,537.4,16.6z"/>
		<path class="st1" d="M548.1,20.9c0-0.4,0.1-0.8,0.1-1.2l1.6-6.6h-1.4l0.4-1.5h1.4l0.8-3.4h1.5l-0.8,3.4h3.3l-0.4,1.5h-3.3
			l-1.6,6.6c0,0.3-0.1,0.6-0.1,0.8c0,0.8,0.5,1.2,1.4,1.2c0.5,0,1-0.1,1.5-0.4l-0.4,1.5c-0.5,0.2-1,0.3-1.6,0.3
			C549.1,23.2,548.1,22.4,548.1,20.9z"/>
		<path class="st1" d="M555,20.1c0-1.1,0.4-2,1-2.7c0.8-0.9,2.1-1.4,3.6-1.4c1.4,0,2.7,0.3,3.7,0.6l0.1-0.3c0.1-0.3,0.1-0.7,0.1-1.1
			c0-1.5-0.9-2.3-2.8-2.3c-1.1,0-2,0.2-2.9,0.6l-0.3-1.4c1-0.4,2.1-0.7,3.4-0.7c2.6,0,4.1,1.3,4.1,3.5c0,0.5-0.1,1-0.2,1.6l-1.6,6.4
			h-1.5l0.4-1.8c-1,1.2-2.2,2-3.9,2C556.5,23.2,555,22.1,555,20.1z M562.8,18.5l0.2-0.8c-0.9-0.3-2.1-0.5-3.4-0.5
			c-1.1,0-1.9,0.4-2.5,0.9c-0.4,0.5-0.7,1.1-0.7,1.7c0,1.2,0.9,2,2.2,2C560.5,21.9,562.3,20.5,562.8,18.5z"/>
	</g>
</g>
<g>
	<g>
		<path class="st1" d="M102.1,15.7h2.8l18.4,39.7H120l-5-11H91.8l-5,11h-3L102.1,15.7z M113.8,41.7l-10.4-22.8L93,41.7H113.8z"/>
		<path class="st1" d="M131.6,15.9h2.8l27.2,34.3V15.9h2.8v39.4h-2.2l-27.8-35v35h-2.8V15.9z"/>
		<path class="st1" d="M176.5,15.9h2.9v39.4h-2.9V15.9z"/>
		<path class="st1" d="M188.1,15.9h3.3l15.4,36.3l15.5-36.3h3.1l-17.3,39.7h-2.6L188.1,15.9z"/>
		<path class="st1" d="M233.7,15.9h28v2.7h-25.1v15.5h22.6v2.7h-22.6v15.8h25.4v2.7h-28.3V15.9z"/>
		<path class="st1" d="M271.5,15.9H288c4.8,0,8.7,1.5,11.1,3.9c1.9,1.9,3,4.5,3,7.3v0.1c0,6.6-4.9,10.4-11.5,11.3l13,16.8h-3.7
			L287.3,39h-12.9v16.3h-2.9V15.9z M287.7,36.4c6.6,0,11.5-3.3,11.5-9v-0.1c0-5.3-4.2-8.6-11.3-8.6h-13.5v17.7H287.7z"/>
		<path class="st1" d="M309.7,49.6l1.9-2.2c4.3,4,8.3,5.9,14.1,5.9c5.9,0,10-3.3,10-7.8v-0.1c0-4.2-2.2-6.6-11.2-8.4
			c-9.5-1.9-13.3-5.1-13.3-11.1v-0.1c0-5.9,5.4-10.4,12.7-10.4c5.7,0,9.5,1.6,13.5,4.8l-1.9,2.3c-3.7-3.2-7.4-4.4-11.8-4.4
			c-5.8,0-9.6,3.3-9.6,7.4v0.1c0,4.2,2.1,6.7,11.5,8.6c9.1,1.9,13,5.1,13,10.9v0.1c0,6.4-5.5,10.8-13.1,10.8
			C319.2,55.9,314.4,53.8,309.7,49.6z"/>
		<path class="st1" d="M348.2,15.9h28v2.7h-25.1v15.5h22.6v2.7h-22.6v15.8h25.4v2.7h-28.3V15.9z"/>
		<path class="st1" d="M385.2,15.9h6.4l21.1,27.3V15.9h6.8v39.4h-5.8l-21.7-28v28h-6.8V15.9z"/>
		<path class="st1" d="M429.7,15.9H459v6.3h-22.4V33h19.9v6.3h-19.9v16.1h-6.9V15.9z"/>
		<path class="st1" d="M476.3,22.4h-12.5v-6.4h32v6.4h-12.5v33h-7V22.4z"/>
	</g>
	<path class="st2" d="M32.8,69.7c-0.6-0.1-0.9-0.5-1.2-1c-3.5-6.1-7-12.3-10.5-18.4c0-0.1-0.1-0.1-0.1-0.2c-0.1,0-0.2,0.1-0.2,0.1
		c-6,3.4-12.1,6.8-18.1,10.2c-0.7,0.4-1.4,0.3-1.9-0.2c-0.2-0.2-0.3-0.5-0.4-0.8c0-15.2,0-30.3,0-45.5c0.1-0.6,0.6-1,1.1-1.2
		C8.3,8.8,15.1,4.9,22,1c0.2-0.1,0.4-0.2,0.6-0.3c0.7-0.4,1.6-0.2,2,0.6c0.7,1.2,1.4,2.4,2.1,3.6c2.9,5.1,5.8,10.1,8.7,15.2
		c0,0.1,0.1,0.1,0.1,0.2c0.1,0,0.2-0.1,0.2-0.1c5.9-3.3,11.8-6.7,17.7-10c0.7-0.4,1.4-0.3,1.9,0.2c0.3,0.3,0.4,0.6,0.4,1
		c0,0,0,0.1,0,0.1c0,14.9,0,29.8,0,44.7c0,0.7-0.3,1.2-0.9,1.5c-6.9,3.9-13.7,7.8-20.6,11.6c-0.2,0.1-0.4,0.2-0.6,0.3
		C33.3,69.7,33.1,69.7,32.8,69.7z M54.5,33.9c0-7.4,0-14.9,0-22.3c0,0,0-0.1,0-0.1c0-0.2-0.2-0.3-0.4-0.3c-0.1,0-0.1,0.1-0.2,0.1
		c-2.2,1.2-4.3,2.4-6.5,3.6c-4.7,2.6-9.4,5.3-14.1,7.9C33.1,23,33,23.1,33,23.4c0,4.4,0,8.8,0,13.2c0,10.5,0,21,0,31.4
		c0,0.5,0.2,0.6,0.6,0.3c0.6-0.3,1.2-0.7,1.8-1c6.2-3.5,12.5-7,18.7-10.6c0.2-0.1,0.3-0.2,0.3-0.5C54.5,48.8,54.5,41.3,54.5,33.9z
		 M34.4,20.9c0-0.1-0.1-0.1-0.1-0.2c-3.6-6.3-7.1-12.5-10.7-18.8c-0.1-0.2-0.2-0.3-0.5-0.1c-0.6,0.3-1.1,0.6-1.7,0.9
		C15,6.4,8.6,10,2.2,13.6c-0.3,0.2-0.3,0.2-0.2,0.6c4.8,8.5,9.7,17,14.5,25.5c4.9,8.6,9.7,17.1,14.6,25.7c0.2,0.4,0.4,0.7,0.6,1.1
		c0,0,0,0,0,0c0-0.1,0-0.2,0-0.3c0-14.3,0-28.6,0-42.8c0-0.7,0.3-1.2,0.9-1.5C33.3,21.5,33.8,21.2,34.4,20.9z M1.6,16
		C1.6,16,1.6,16,1.6,16c-0.1,0.1-0.1,0.1-0.1,0.2c0,14.3,0,28.5,0,42.8c0,0.4,0.2,0.5,0.6,0.3c5.7-3.2,11.3-6.4,17-9.6
		c0.4-0.2,0.8-0.5,1.3-0.7C14.1,37.9,7.9,26.9,1.6,16z"/>
</g>
</svg>
