<?xml version="1.0" encoding="utf-8"?>
<!-- Generator: Adobe Illustrator 26.2.1, SVG Export Plug-In . SVG Version: 6.00 Build 0)  -->
<svg version="1.1" id="격리_모드" xmlns="http://www.w3.org/2000/svg" xmlns:xlink="http://www.w3.org/1999/xlink" x="0px"
	 y="0px" viewBox="0 0 73 84.5" style="enable-background:new 0 0 73 84.5;" xml:space="preserve">
<style type="text/css">
	.st0{fill:#4A3591;}
</style>
<g>
	<rect x="18.7" y="18.9" class="st0" width="21.9" height="4.2"/>
	<path class="st0" d="M42.1,24.6H17.2v-7.2h24.9V24.6z M20.2,21.6h18.9v-1.2H20.2V21.6z"/>
</g>
<g>
	<rect x="18.7" y="33.9" class="st0" width="21.9" height="4.2"/>
	<path class="st0" d="M42.1,39.5H17.2v-7.2h24.9V39.5z M20.2,36.5h18.9v-1.2H20.2V36.5z"/>
</g>
<g>
	<rect x="18.7" y="48.8" class="st0" width="21.9" height="4.2"/>
	<path class="st0" d="M42.1,54.5H17.2v-7.2h24.9V54.5z M20.2,51.5h18.9v-1.2H20.2V51.5z"/>
</g>
<g>
	<path class="st0" d="M66.9,11.5h-8.7V6.1c0-2.5-2.1-4.6-4.6-4.6H6.1c-2.5,0-4.6,2.1-4.6,4.6v59.4c0,2.5,2.1,4.6,4.6,4.6h8.7v8.2
		c0,2.5,2.1,4.6,4.6,4.6h47.5c2.5,0,4.6-2.1,4.6-4.6V16.1C71.5,13.6,69.4,11.5,66.9,11.5z M6.5,6.5h46.8v58.7H6.5V6.5z M66.5,78
		H19.8v-7.8h33.9c2.5,0,4.6-2.1,4.6-4.6v-49h8.3V78z"/>
	<path class="st0" d="M66.9,84.5H19.4c-3.4,0-6.1-2.7-6.1-6.1v-6.7H6.1c-3.4,0-6.1-2.7-6.1-6.1V6.1C0,2.7,2.7,0,6.1,0h47.5
		c3.4,0,6.1,2.7,6.1,6.1V10h7.2c3.4,0,6.1,2.7,6.1,6.1v62.2C73,81.7,70.2,84.5,66.9,84.5z M6.1,3C4.4,3,3,4.4,3,6.1v59.4
		c0,1.7,1.4,3.1,3.1,3.1h10.2v9.7c0,1.7,1.4,3.1,3.1,3.1h47.5c1.7,0,3.1-1.4,3.1-3.1V16.1c0-1.7-1.4-3.1-3.1-3.1H56.7V6.1
		c0-1.7-1.4-3.1-3.1-3.1H6.1z M68,79.5H18.3V68.6h35.4c1.7,0,3.1-1.4,3.1-3.1V15H68V79.5z M21.3,76.5H65V18h-5.3v47.5
		c0,3.4-2.7,6.1-6.1,6.1H21.3V76.5z M54.7,66.6H5V5h49.8V66.6z M8,63.6h43.8V8H8V63.6z"/>
</g>
</svg>
