<?xml version="1.0" encoding="utf-8"?>
<!-- Generator: Adobe Illustrator 22.0.0, SVG Export Plug-In . SVG Version: 6.00 Build 0)  -->
<svg version="1.2" baseProfile="tiny" id="Layer_1" xmlns="http://www.w3.org/2000/svg" xmlns:xlink="http://www.w3.org/1999/xlink"
	 x="0px" y="0px" viewBox="0 0 32 32" xml:space="preserve">
<g>
	<radialGradient id="SVGID_1_" cx="10.9507" cy="23.3233" r="4.3472" gradientUnits="userSpaceOnUse">
		<stop  offset="0" style="stop-color:#E3007F"/>
		<stop  offset="1" style="stop-color:#2E338F"/>
	</radialGradient>
	<path fill="url(#SVGID_1_)" d="M7.8,28.1h6.3c0.5,0,0.9-0.5,0.7-1l-3.2-8c-0.2-0.6-1.1-0.6-1.4,0l-3.2,8
		C6.9,27.5,7.3,28.1,7.8,28.1z"/>
	<radialGradient id="SVGID_2_" cx="16" cy="16" r="15.3452" gradientUnits="userSpaceOnUse">
		<stop  offset="0" style="stop-color:#E3007F"/>
		<stop  offset="1" style="stop-color:#2E338F"/>
	</radialGradient>
	<path fill="url(#SVGID_2_)" d="M28.1,5.2l-5.2,13.2c-0.7,1.7-3.1,1.7-3.7,0L13.5,3.9h0L13,2.6c-0.7-1.7-3.1-1.7-3.7,0L7.5,7.1h0
		L0.2,25.4c-0.5,1.3,0.4,2.7,1.9,2.7h0c0.8,0,1.6-0.5,1.9-1.3l5.2-13.2c0.7-1.7,3.1-1.7,3.7,0l5.7,14.4h0l0.5,1.4
		c0.7,1.7,3.1,1.7,3.7,0l2.2-5.6h0l6.8-17.2c0.5-1.3-0.4-2.7-1.9-2.7h0C29.1,3.9,28.4,4.4,28.1,5.2z"/>
</g>
</svg>
