<svg id="Group_3281" data-name="Group 3281" xmlns="http://www.w3.org/2000/svg" xmlns:xlink="http://www.w3.org/1999/xlink" width="21.577" height="21.401" viewBox="0 0 21.577 21.401">
  <defs>
    <clipPath id="clip-path">
      <rect id="Rectangle_704" data-name="Rectangle 704" width="21.577" height="21.401" fill="none"/>
    </clipPath>
  </defs>
  <g id="Group_3279" data-name="Group 3279" clip-path="url(#clip-path)">
    <path id="Path_3172" data-name="Path 3172" d="M0,41.405l9.9-9.833.075.044L2.814,48.825c-.216-.246-.4-.435-.561-.642A10.647,10.647,0,0,1,.081,43.332,1.052,1.052,0,0,0,0,43.124V41.405" transform="translate(0 -30.831)" fill="#574a3b"/>
    <path id="Path_3173" data-name="Path 3173" d="M486.652,149.736l7.245-7.293c3.637,3.3,4.119,10.641.019,14.644a1.406,1.406,0,0,1-.136-.109q-3.568-3.624-7.128-7.242" transform="translate(-475.233 -139.101)" fill="#574a3b"/>
    <path id="Path_3174" data-name="Path 3174" d="M167.8,490.571q-3.5,1.438-6.98,2.863a.68.68,0,0,1-.466,0c-2.326-.945-4.648-1.9-6.932-2.843l7.221-7.174,7.156,7.156" transform="translate(-149.82 -472.072)" fill="#574a3b"/>
    <path id="Path_3175" data-name="Path 3175" d="M180.622,16.5,187.48,0l6.814,2.8L180.688,16.536l-.066-.035" transform="translate(-176.384)" fill="#574a3b"/>
  </g>
</svg>
